<?xml version="1.0" encoding="UTF-8" standalone="no"?>
<!DOCTYPE svg PUBLIC "-//W3C//DTD SVG 1.1//EN" "http://www.w3.org/Graphics/SVG/1.1/DTD/svg11.dtd">
<!-- 由 Microsoft Visio, SVG Export 生成 Unet网络.svg Page-1 -->
<svg xmlns="http://www.w3.org/2000/svg" xmlns:xlink="http://www.w3.org/1999/xlink" xmlns:ev="http://www.w3.org/2001/xml-events"
		xmlns:v="http://schemas.microsoft.com/visio/2003/SVGExtensions/" width="14in" height="8.5in" viewBox="0 0 1008 612"
		xml:space="preserve" color-interpolation-filters="sRGB" class="st11">
	<v:documentProperties v:langID="2052" v:metric="true" v:viewMarkup="false">
		<v:userDefs>
			<v:ud v:nameU="msvNoAutoConnect" v:val="VT0(1):26"/>
		</v:userDefs>
	</v:documentProperties>

	<style type="text/css">
	<![CDATA[
		.st1 {fill:#ffff00;stroke:#000000;stroke-linecap:round;stroke-linejoin:round;stroke-width:0.75}
		.st2 {marker-end:url(#mrkr13-10);stroke:#000000;stroke-linecap:round;stroke-linejoin:round;stroke-width:0.75}
		.st3 {fill:#000000;fill-opacity:1;stroke:#000000;stroke-opacity:1;stroke-width:0.22935779816514}
		.st4 {fill:#ffc000;stroke:#000000;stroke-linecap:round;stroke-linejoin:round;stroke-width:0.75}
		.st5 {fill:none;stroke:none;stroke-linecap:round;stroke-linejoin:round;stroke-width:0.75}
		.st6 {fill:#000000;font-family:黑体;font-size:0.75em}
		.st7 {marker-start:url(#mrkr13-204);stroke:#000000;stroke-linecap:round;stroke-linejoin:round;stroke-width:0.75}
		.st8 {marker-end:url(#mrkr13-210);stroke:#000000;stroke-linecap:round;stroke-linejoin:round;stroke-width:3}
		.st9 {fill:#000000;fill-opacity:1;stroke:#000000;stroke-opacity:1;stroke-width:0.54347826086957}
		.st10 {fill:#000000;font-family:黑体;font-size:1.16666em}
		.st11 {fill:none;fill-rule:evenodd;font-size:12px;overflow:visible;stroke-linecap:square;stroke-miterlimit:3}
	]]>
	</style>

	<defs id="Markers">
		<g id="lend13">
			<path d="M 3 1 L 0 0 L 3 -1 L 3 1 " style="stroke:none"/>
		</g>
		<marker id="mrkr13-10" class="st3" v:arrowType="13" v:arrowSize="2" v:setback="13.08" refX="-13.08" orient="auto"
				markerUnits="strokeWidth" overflow="visible">
			<use xlink:href="#lend13" transform="scale(-4.36,-4.36) "/>
		</marker>
		<marker id="mrkr13-204" class="st3" v:arrowType="13" v:arrowSize="2" v:setback="12.6" refX="12.6" orient="auto"
				markerUnits="strokeWidth" overflow="visible">
			<use xlink:href="#lend13" transform="scale(4.36) "/>
		</marker>
		<marker id="mrkr13-210" class="st9" v:arrowType="13" v:arrowSize="2" v:setback="5.52" refX="-5.52" orient="auto"
				markerUnits="strokeWidth" overflow="visible">
			<use xlink:href="#lend13" transform="scale(-1.84,-1.84) "/>
		</marker>
	</defs>
	<g v:mID="0" v:index="1" v:groupContext="foregroundPage">
		<title>页-1</title>
		<v:pageProperties v:drawingScale="0.0393701" v:pageScale="0.0393701" v:drawingUnits="24" v:shadowOffsetX="8.50394"
				v:shadowOffsetY="-8.50394"/>
		<v:layer v:name="连接线" v:index="0"/>
		<g id="shape2-1" v:mID="2" v:groupContext="shape" transform="translate(46.6299,-441.638)">
			<title>工作表.2</title>
			<rect x="0" y="509.386" width="3.68504" height="102.614" class="st1"/>
		</g>
		<g id="shape3-3" v:mID="3" v:groupContext="shape" transform="translate(62.6457,-441.638)">
			<title>工作表.3</title>
			<rect x="0" y="509.386" width="7.08661" height="102.614" class="st1"/>
		</g>
		<g id="shape5-5" v:mID="5" v:groupContext="shape" v:layerMember="0" transform="translate(49.3937,-515.474)">
			<title>动态连接线.5</title>
			<path d="M0.92 604.91 L3.44 604.91" class="st2"/>
		</g>
		<g id="shape6-11" v:mID="6" v:groupContext="shape" transform="translate(82.063,-441.638)">
			<title>工作表.6</title>
			<rect x="0" y="509.386" width="7.08661" height="102.614" class="st4"/>
		</g>
		<g id="shape7-13" v:mID="7" v:groupContext="shape" v:layerMember="0" transform="translate(68.811,-529.647)">
			<title>动态连接线.7</title>
			<path d="M0.92 619.09 L3.44 619.09" class="st2"/>
		</g>
		<g id="shape8-18" v:mID="8" v:groupContext="shape" transform="translate(41.9528,-545.386)">
			<title>工作表.8</title>
			<desc>3</desc>
			<v:textBlock v:margins="rect(4,4,4,4)" v:tabSpace="42.5197"/>
			<v:textRect cx="4.67717" cy="608.315" width="9.36" height="7.37008"/>
			<rect x="0" y="604.63" width="9.35433" height="7.37008" class="st5"/>
			<text x="4" y="611.01" class="st6" v:langID="2052"><v:paragraph v:horizAlign="1"/><v:tabList/>3</text>		</g>
		<g id="shape9-21" v:mID="9" v:groupContext="shape" transform="translate(54.2126,-545.386)">
			<title>工作表.9</title>
			<desc>64</desc>
			<v:textBlock v:margins="rect(4,4,4,4)" v:tabSpace="42.5197"/>
			<v:textRect cx="11.9764" cy="608.315" width="23.96" height="7.37008"/>
			<rect x="0" y="604.63" width="23.9528" height="7.37008" class="st5"/>
			<text x="7.48" y="611.01" class="st6" v:langID="2052"><v:paragraph v:horizAlign="1"/><v:tabList/>64</text>		</g>
		<g id="shape10-24" v:mID="10" v:groupContext="shape" transform="translate(76.3814,-545.386)">
			<title>工作表.10</title>
			<desc>64</desc>
			<v:textBlock v:margins="rect(4,4,4,4)" v:tabSpace="42.5197"/>
			<v:textRect cx="11.9764" cy="608.315" width="23.96" height="7.37008"/>
			<rect x="0" y="604.63" width="23.9528" height="7.37008" class="st5"/>
			<text x="7.48" y="611.01" class="st6" v:langID="2052"><v:paragraph v:horizAlign="1"/><v:tabList/>64</text>		</g>
		<g id="shape11-27" v:mID="11" v:groupContext="shape" transform="translate(-566.929,178.299) rotate(-90)">
			<title>工作表.11</title>
			<desc>Input:512X512</desc>
			<v:textBlock v:margins="rect(4,4,4,4)" v:tabSpace="42.5197"/>
			<v:textRect cx="35.8583" cy="608.315" width="71.72" height="7.37008"/>
			<rect x="0" y="604.63" width="71.7165" height="7.37008" class="st5"/>
			<text x="6.61" y="611.01" class="st6" v:langID="2052"><v:paragraph v:horizAlign="1"/><v:tabList/>Input:512X512</text>		</g>
		<g id="shape12-30" v:mID="12" v:groupContext="shape" transform="translate(-549.071,191.055) rotate(-90)">
			<title>工作表.12</title>
			<desc>512X512</desc>
			<v:textBlock v:margins="rect(4,4,4,4)" v:tabSpace="42.5197"/>
			<v:textRect cx="35.8583" cy="608.315" width="71.72" height="7.37008"/>
			<rect x="0" y="604.63" width="71.7165" height="7.37008" class="st5"/>
			<text x="20.11" y="611.01" class="st6" v:langID="2052"><v:paragraph v:horizAlign="1"/><v:tabList/>512X512</text>		</g>
		<g id="shape13-33" v:mID="13" v:groupContext="shape" transform="translate(-530.079,191.055) rotate(-90)">
			<title>工作表.13</title>
			<desc>512X512</desc>
			<v:textBlock v:margins="rect(4,4,4,4)" v:tabSpace="42.5197"/>
			<v:textRect cx="35.8583" cy="608.315" width="71.72" height="7.37008"/>
			<rect x="0" y="604.63" width="71.7165" height="7.37008" class="st5"/>
			<text x="20.11" y="611.01" class="st6" v:langID="2052"><v:paragraph v:horizAlign="1"/><v:tabList/>512X512</text>		</g>
		<g id="shape25-36" v:mID="25" v:groupContext="shape" transform="translate(82.4173,-344.268)">
			<title>工作表.25</title>
			<rect x="0" y="551.055" width="7.08661" height="60.9449" class="st1"/>
		</g>
		<g id="shape26-38" v:mID="26" v:groupContext="shape" transform="translate(103.76,-344.268)">
			<title>工作表.26</title>
			<rect x="0" y="551.055" width="12.5895" height="60.9449" class="st1"/>
		</g>
		<g id="shape27-40" v:mID="27" v:groupContext="shape" v:layerMember="0" transform="translate(89.5039,-391.039)">
			<title>动态连接线.27</title>
			<path d="M0 604.91 L4.45 604.91" class="st2"/>
		</g>
		<g id="shape28-45" v:mID="28" v:groupContext="shape" transform="translate(129.272,-344.268)">
			<title>工作表.28</title>
			<rect x="0" y="551.055" width="12.5895" height="60.9449" class="st4"/>
		</g>
		<g id="shape29-47" v:mID="29" v:groupContext="shape" v:layerMember="0" transform="translate(115.724,-391.039)">
			<title>动态连接线.29</title>
			<path d="M0.63 604.91 L3.74 604.91" class="st2"/>
		</g>
		<g id="shape31-52" v:mID="31" v:groupContext="shape" transform="translate(98.0787,-405.213)">
			<title>工作表.31</title>
			<desc>128</desc>
			<v:textBlock v:margins="rect(4,4,4,4)" v:tabSpace="42.5197"/>
			<v:textRect cx="11.9764" cy="608.315" width="23.96" height="7.37008"/>
			<rect x="0" y="604.63" width="23.9528" height="7.37008" class="st5"/>
			<text x="5.23" y="611.01" class="st6" v:langID="2052"><v:paragraph v:horizAlign="1"/><v:tabList/>128</text>		</g>
		<g id="shape32-55" v:mID="32" v:groupContext="shape" transform="translate(123.591,-405.213)">
			<title>工作表.32</title>
			<desc>128</desc>
			<v:textBlock v:margins="rect(4,4,4,4)" v:tabSpace="42.5197"/>
			<v:textRect cx="11.9764" cy="608.315" width="23.96" height="7.37008"/>
			<rect x="0" y="604.63" width="23.9528" height="7.37008" class="st5"/>
			<text x="5.23" y="611.01" class="st6" v:langID="2052"><v:paragraph v:horizAlign="1"/><v:tabList/>128</text>		</g>
		<g id="shape33-58" v:mID="33" v:groupContext="shape" transform="translate(-529.228,288.567) rotate(-90)">
			<title>工作表.33</title>
			<desc>256X256</desc>
			<v:textBlock v:margins="rect(4,4,4,4)" v:tabSpace="42.5197"/>
			<v:textRect cx="35.8583" cy="608.315" width="71.72" height="7.37008"/>
			<rect x="0" y="604.63" width="71.7165" height="7.37008" class="st5"/>
			<text x="20.11" y="611.01" class="st6" v:langID="2052"><v:paragraph v:horizAlign="1"/><v:tabList/>256X256</text>		</g>
		<g id="shape34-61" v:mID="34" v:groupContext="shape" transform="translate(-507.969,288.85) rotate(-90)">
			<title>工作表.34</title>
			<desc>256X256</desc>
			<v:textBlock v:margins="rect(4,4,4,4)" v:tabSpace="42.5197"/>
			<v:textRect cx="35.8583" cy="608.315" width="71.72" height="7.37008"/>
			<rect x="0" y="604.63" width="71.7165" height="7.37008" class="st5"/>
			<text x="20.11" y="611.01" class="st6" v:langID="2052"><v:paragraph v:horizAlign="1"/><v:tabList/>256X256</text>		</g>
		<g id="shape35-64" v:mID="35" v:groupContext="shape" transform="translate(-482.457,288.283) rotate(-90)">
			<title>工作表.35</title>
			<desc>256X256</desc>
			<v:textBlock v:margins="rect(4,4,4,4)" v:tabSpace="42.5197"/>
			<v:textRect cx="35.8583" cy="608.315" width="71.72" height="7.37008"/>
			<rect x="0" y="604.63" width="71.7165" height="7.37008" class="st5"/>
			<text x="20.11" y="611.01" class="st6" v:langID="2052"><v:paragraph v:horizAlign="1"/><v:tabList/>256X256</text>		</g>
		<g id="shape38-67" v:mID="38" v:groupContext="shape" transform="translate(73.9843,-405.213)">
			<title>工作表.38</title>
			<desc>64</desc>
			<v:textBlock v:margins="rect(4,4,4,4)" v:tabSpace="42.5197"/>
			<v:textRect cx="11.9764" cy="608.315" width="23.96" height="7.37008"/>
			<rect x="0" y="604.63" width="23.9528" height="7.37008" class="st5"/>
			<text x="7.48" y="611.01" class="st6" v:langID="2052"><v:paragraph v:horizAlign="1"/><v:tabList/>64</text>		</g>
		<g id="shape42-70" v:mID="42" v:groupContext="shape" transform="translate(155.633,-249.803)">
			<title>工作表.42</title>
			<rect x="0" y="551.055" width="21.5411" height="60.9449" class="st1"/>
		</g>
		<g id="shape44-72" v:mID="44" v:groupContext="shape" transform="translate(191.916,-249.449)">
			<title>工作表.44</title>
			<rect x="0" y="551.055" width="21.5411" height="60.9449" class="st4"/>
		</g>
		<g id="shape46-74" v:mID="46" v:groupContext="shape" transform="translate(154.427,-310.394)">
			<title>工作表.46</title>
			<desc>256</desc>
			<v:textBlock v:margins="rect(4,4,4,4)" v:tabSpace="42.5197"/>
			<v:textRect cx="11.9764" cy="608.315" width="23.96" height="7.37008"/>
			<rect x="0" y="604.63" width="23.9528" height="7.37008" class="st5"/>
			<text x="5.23" y="611.01" class="st6" v:langID="2052"><v:paragraph v:horizAlign="1"/><v:tabList/>256</text>		</g>
		<g id="shape47-77" v:mID="47" v:groupContext="shape" transform="translate(190.71,-310.394)">
			<title>工作表.47</title>
			<desc>256</desc>
			<v:textBlock v:margins="rect(4,4,4,4)" v:tabSpace="42.5197"/>
			<v:textRect cx="11.9764" cy="608.315" width="23.96" height="7.37008"/>
			<rect x="0" y="604.63" width="23.9528" height="7.37008" class="st5"/>
			<text x="5.23" y="611.01" class="st6" v:langID="2052"><v:paragraph v:horizAlign="1"/><v:tabList/>256</text>		</g>
		<g id="shape48-80" v:mID="48" v:groupContext="shape" transform="translate(-482.457,384.236) rotate(-90)">
			<title>工作表.48</title>
			<desc>128X128</desc>
			<v:textBlock v:margins="rect(4,4,4,4)" v:tabSpace="42.5197"/>
			<v:textRect cx="35.8583" cy="608.315" width="71.72" height="7.37008"/>
			<rect x="0" y="604.63" width="71.7165" height="7.37008" class="st5"/>
			<text x="20.11" y="611.01" class="st6" v:langID="2052"><v:paragraph v:horizAlign="1"/><v:tabList/>128X128</text>		</g>
		<g id="shape49-83" v:mID="49" v:groupContext="shape" transform="translate(-456.378,383.811) rotate(-90)">
			<title>工作表.49</title>
			<desc>128X128</desc>
			<v:textBlock v:margins="rect(4,4,4,4)" v:tabSpace="42.5197"/>
			<v:textRect cx="35.8583" cy="608.315" width="71.72" height="7.37008"/>
			<rect x="0" y="604.63" width="71.7165" height="7.37008" class="st5"/>
			<text x="20.11" y="611.01" class="st6" v:langID="2052"><v:paragraph v:horizAlign="1"/><v:tabList/>128X128</text>		</g>
		<g id="shape50-86" v:mID="50" v:groupContext="shape" transform="translate(-420.094,383.811) rotate(-90)">
			<title>工作表.50</title>
			<desc>128X128</desc>
			<v:textBlock v:margins="rect(4,4,4,4)" v:tabSpace="42.5197"/>
			<v:textRect cx="35.8583" cy="608.315" width="71.72" height="7.37008"/>
			<rect x="0" y="604.63" width="71.7165" height="7.37008" class="st5"/>
			<text x="20.11" y="611.01" class="st6" v:langID="2052"><v:paragraph v:horizAlign="1"/><v:tabList/>128X128</text>		</g>
		<g id="shape51-89" v:mID="51" v:groupContext="shape" transform="translate(123.872,-310.394)">
			<title>工作表.51</title>
			<desc>128</desc>
			<v:textBlock v:margins="rect(4,4,4,4)" v:tabSpace="42.5197"/>
			<v:textRect cx="11.9764" cy="608.315" width="23.96" height="7.37008"/>
			<rect x="0" y="604.63" width="23.9528" height="7.37008" class="st5"/>
			<text x="5.23" y="611.01" class="st6" v:langID="2052"><v:paragraph v:horizAlign="1"/><v:tabList/>128</text>		</g>
		<g id="shape52-92" v:mID="52" v:groupContext="shape" transform="translate(129.553,-249.094)">
			<title>工作表.52</title>
			<rect x="0" y="551.055" width="12.5895" height="60.9449" class="st1"/>
		</g>
		<g id="shape56-94" v:mID="56" v:groupContext="shape" v:layerMember="0" transform="translate(141.801,-306.496)">
			<title>动态连接线.56</title>
			<path d="M0.34 619.09 L4.02 619.09" class="st2"/>
		</g>
		<g id="shape57-99" v:mID="57" v:groupContext="shape" v:layerMember="0" transform="translate(177.174,-292.323)">
			<title>动态连接线.57</title>
			<path d="M0 604.91 L4.93 604.91" class="st2"/>
		</g>
		<g id="shape59-104" v:mID="59" v:groupContext="shape" v:layerMember="0" transform="translate(78.8031,-441.638)">
			<title>动态连接线</title>
			<path d="M7.09 612 L7.09 627.7" class="st2"/>
		</g>
		<g id="shape61-109" v:mID="61" v:groupContext="shape" v:layerMember="0" transform="translate(128.409,-344.268)">
			<title>动态连接线.61</title>
			<path d="M7.09 612 L7.09 627.7" class="st2"/>
		</g>
		<g id="shape74-114" v:mID="74" v:groupContext="shape" v:layerMember="0" transform="translate(195.307,-249.449)">
			<title>动态连接线.74</title>
			<path d="M7.09 612 L7.09 627.7" class="st2"/>
		</g>
		<g id="shape75-119" v:mID="75" v:groupContext="shape" transform="translate(231.875,-154.488)">
			<title>工作表.75</title>
			<rect x="0" y="551.055" width="46.2036" height="60.9449" class="st1"/>
		</g>
		<g id="shape76-121" v:mID="76" v:groupContext="shape" transform="translate(292.82,-154.083)">
			<title>工作表.76</title>
			<rect x="0" y="551.055" width="46.2036" height="60.9449" class="st4"/>
		</g>
		<g id="shape77-123" v:mID="77" v:groupContext="shape" transform="translate(243.001,-215.433)">
			<title>工作表.77</title>
			<desc>512</desc>
			<v:textBlock v:margins="rect(4,4,4,4)" v:tabSpace="42.5197"/>
			<v:textRect cx="11.9764" cy="608.315" width="23.96" height="7.37008"/>
			<rect x="0" y="604.63" width="23.9528" height="7.37008" class="st5"/>
			<text x="5.23" y="611.01" class="st6" v:langID="2052"><v:paragraph v:horizAlign="1"/><v:tabList/>512</text>		</g>
		<g id="shape78-126" v:mID="78" v:groupContext="shape" transform="translate(303.945,-214.583)">
			<title>工作表.78</title>
			<desc>512</desc>
			<v:textBlock v:margins="rect(4,4,4,4)" v:tabSpace="42.5197"/>
			<v:textRect cx="11.9764" cy="608.315" width="23.96" height="7.37008"/>
			<rect x="0" y="604.63" width="23.9528" height="7.37008" class="st5"/>
			<text x="5.23" y="611.01" class="st6" v:langID="2052"><v:paragraph v:horizAlign="1"/><v:tabList/>512</text>		</g>
		<g id="shape79-129" v:mID="79" v:groupContext="shape" transform="translate(-420.094,482.032) rotate(-90)">
			<title>工作表.79</title>
			<desc>64X64</desc>
			<v:textBlock v:margins="rect(4,4,4,4)" v:tabSpace="42.5197"/>
			<v:textRect cx="35.8583" cy="608.315" width="71.72" height="7.37008"/>
			<rect x="0" y="604.63" width="71.7165" height="7.37008" class="st5"/>
			<text x="24.61" y="611.01" class="st6" v:langID="2052"><v:paragraph v:horizAlign="1"/><v:tabList/>64X64</text>		</g>
		<g id="shape80-132" v:mID="80" v:groupContext="shape" transform="translate(-379.843,482.032) rotate(-90)">
			<title>工作表.80</title>
			<desc>64X64</desc>
			<v:textBlock v:margins="rect(4,4,4,4)" v:tabSpace="42.5197"/>
			<v:textRect cx="35.8583" cy="608.315" width="71.72" height="7.37008"/>
			<rect x="0" y="604.63" width="71.7165" height="7.37008" class="st5"/>
			<text x="24.61" y="611.01" class="st6" v:langID="2052"><v:paragraph v:horizAlign="1"/><v:tabList/>64X64</text>		</g>
		<g id="shape81-135" v:mID="81" v:groupContext="shape" transform="translate(-319.465,483.024) rotate(-90)">
			<title>工作表.81</title>
			<desc>64X64</desc>
			<v:textBlock v:margins="rect(4,4,4,4)" v:tabSpace="42.5197"/>
			<v:textRect cx="35.8583" cy="608.315" width="71.72" height="7.37008"/>
			<rect x="0" y="604.63" width="71.7165" height="7.37008" class="st5"/>
			<text x="24.61" y="611.01" class="st6" v:langID="2052"><v:paragraph v:horizAlign="1"/><v:tabList/>64X64</text>		</g>
		<g id="shape82-138" v:mID="82" v:groupContext="shape" transform="translate(190.71,-215.15)">
			<title>工作表.82</title>
			<desc>256</desc>
			<v:textBlock v:margins="rect(4,4,4,4)" v:tabSpace="42.5197"/>
			<v:textRect cx="11.9764" cy="608.315" width="23.96" height="7.37008"/>
			<rect x="0" y="604.63" width="23.9528" height="7.37008" class="st5"/>
			<text x="5.23" y="611.01" class="st6" v:langID="2052"><v:paragraph v:horizAlign="1"/><v:tabList/>256</text>		</g>
		<g id="shape83-141" v:mID="83" v:groupContext="shape" transform="translate(192.19,-154.488)">
			<title>工作表.83</title>
			<rect x="0" y="551.055" width="21.5411" height="60.9449" class="st1"/>
		</g>
		<g id="shape86-143" v:mID="86" v:groupContext="shape" v:layerMember="0" transform="translate(309.26,-154.083)">
			<title>动态连接线.86</title>
			<path d="M7.09 612 L7.09 627.3" class="st2"/>
		</g>
		<g id="shape90-148" v:mID="90" v:groupContext="shape" v:layerMember="0" transform="translate(213.731,-192.756)">
			<title>动态连接线.90</title>
			<path d="M0 604.91 L8.33 604.91" class="st2"/>
		</g>
		<g id="shape138-153" v:mID="138" v:groupContext="shape" v:layerMember="0" transform="translate(278.079,-206.929)">
			<title>动态连接线.138</title>
			<path d="M0 619.09 L4.93 619.09" class="st2"/>
		</g>
		<g id="shape140-158" v:mID="140" v:groupContext="shape" transform="translate(292.82,-83.3386)">
			<title>工作表.140</title>
			<rect x="0" y="574.866" width="46.2036" height="37.1339" class="st1"/>
		</g>
		<g id="shape141-160" v:mID="141" v:groupContext="shape" transform="translate(303.945,-120.472)">
			<title>工作表.141</title>
			<desc>512</desc>
			<v:textBlock v:margins="rect(4,4,4,4)" v:tabSpace="42.5197"/>
			<v:textRect cx="11.9764" cy="608.315" width="23.96" height="7.37008"/>
			<rect x="0" y="604.63" width="23.9528" height="7.37008" class="st5"/>
			<text x="5.23" y="611.01" class="st6" v:langID="2052"><v:paragraph v:horizAlign="1"/><v:tabList/>512</text>		</g>
		<g id="shape142-163" v:mID="142" v:groupContext="shape" transform="translate(-319.465,553.323) rotate(-90)">
			<title>工作表.142</title>
			<desc>32X32</desc>
			<v:textBlock v:margins="rect(4,4,4,4)" v:tabSpace="42.5197"/>
			<v:textRect cx="35.8583" cy="608.315" width="71.72" height="7.37008"/>
			<rect x="0" y="604.63" width="71.7165" height="7.37008" class="st5"/>
			<text x="24.61" y="611.01" class="st6" v:langID="2052"><v:paragraph v:horizAlign="1"/><v:tabList/>32X32</text>		</g>
		<g id="shape143-166" v:mID="143" v:groupContext="shape" transform="translate(380.551,-82.6299)">
			<title>工作表.143</title>
			<rect x="0" y="574.866" width="106.299" height="37.1339" class="st1"/>
		</g>
		<g id="shape144-168" v:mID="144" v:groupContext="shape" v:layerMember="0" transform="translate(339.024,-106.715)">
			<title>动态连接线.144</title>
			<path d="M0 604.95 L31.72 604.9" class="st2"/>
		</g>
		<g id="shape145-173" v:mID="145" v:groupContext="shape" transform="translate(-232.016,554.173) rotate(-90)">
			<title>工作表.145</title>
			<desc>32X32</desc>
			<v:textBlock v:margins="rect(4,4,4,4)" v:tabSpace="42.5197"/>
			<v:textRect cx="35.8583" cy="608.315" width="71.72" height="7.37008"/>
			<rect x="0" y="604.63" width="71.7165" height="7.37008" class="st5"/>
			<text x="24.61" y="611.01" class="st6" v:langID="2052"><v:paragraph v:horizAlign="1"/><v:tabList/>32X32</text>		</g>
		<g id="shape147-176" v:mID="147" v:groupContext="shape" transform="translate(537.592,-154.144)">
			<title>工作表.147</title>
			<rect x="0" y="551.055" width="46.2036" height="60.9449" class="st4"/>
		</g>
		<g id="shape148-178" v:mID="148" v:groupContext="shape" transform="translate(-74.6929,482.963) rotate(-90)">
			<title>工作表.148</title>
			<desc>64X64</desc>
			<v:textBlock v:margins="rect(4,4,4,4)" v:tabSpace="42.5197"/>
			<v:textRect cx="35.8583" cy="608.315" width="71.72" height="7.37008"/>
			<rect x="0" y="604.63" width="71.7165" height="7.37008" class="st5"/>
			<text x="24.61" y="611.01" class="st6" v:langID="2052"><v:paragraph v:horizAlign="1"/><v:tabList/>64X64</text>		</g>
		<g id="shape150-181" v:mID="150" v:groupContext="shape" transform="translate(420.059,-120.189)">
			<title>工作表.150</title>
			<desc>1024</desc>
			<v:textBlock v:margins="rect(4,4,4,4)" v:tabSpace="42.5197"/>
			<v:textRect cx="13.6417" cy="608.315" width="27.29" height="7.37008"/>
			<rect x="0" y="604.63" width="27.2835" height="7.37008" class="st5"/>
			<text x="4.64" y="611.01" class="st6" v:langID="2052"><v:paragraph v:horizAlign="1"/><v:tabList/>1024</text>		</g>
		<g id="shape151-184" v:mID="151" v:groupContext="shape" transform="translate(521.717,-82.6299)">
			<title>工作表.151</title>
			<rect x="0" y="574.866" width="109.701" height="37.1339" class="st1"/>
		</g>
		<g id="shape152-186" v:mID="152" v:groupContext="shape" transform="translate(-90.8504,554.173) rotate(-90)">
			<title>工作表.152</title>
			<desc>32X32</desc>
			<v:textBlock v:margins="rect(4,4,4,4)" v:tabSpace="42.5197"/>
			<v:textRect cx="35.8583" cy="608.315" width="71.72" height="7.37008"/>
			<rect x="0" y="604.63" width="71.7165" height="7.37008" class="st5"/>
			<text x="24.61" y="611.01" class="st6" v:langID="2052"><v:paragraph v:horizAlign="1"/><v:tabList/>32X32</text>		</g>
		<g id="shape153-189" v:mID="153" v:groupContext="shape" transform="translate(562.925,-120.189)">
			<title>工作表.153</title>
			<desc>1024</desc>
			<v:textBlock v:margins="rect(4,4,4,4)" v:tabSpace="42.5197"/>
			<v:textRect cx="13.6417" cy="608.315" width="27.29" height="7.37008"/>
			<rect x="0" y="604.63" width="27.2835" height="7.37008" class="st5"/>
			<text x="4.64" y="611.01" class="st6" v:langID="2052"><v:paragraph v:horizAlign="1"/><v:tabList/>1024</text>		</g>
		<g id="shape154-192" v:mID="154" v:groupContext="shape" v:layerMember="0" transform="translate(486.85,-120.907)">
			<title>动态连接线.154</title>
			<path d="M0 619.09 L25.06 619.09" class="st2"/>
		</g>
		<g id="shape155-197" v:mID="155" v:groupContext="shape" transform="translate(584.08,-154.144)">
			<title>工作表.155</title>
			<rect x="0" y="551.055" width="46.2036" height="60.9449" class="st1"/>
		</g>
		<g id="shape157-199" v:mID="157" v:groupContext="shape" v:layerMember="0" transform="translate(602.504,-144.871)">
			<title>动态连接线.157</title>
			<path d="M7.09 621.45 L7.09 621.81 L7.09 637.11" class="st7"/>
		</g>
		<g id="shape158-205" v:mID="158" v:groupContext="shape" v:layerMember="0" transform="translate(349.37,-179.15)">
			<title>动态连接线.158</title>
			<path d="M0 604.91 L159.19 604.91" class="st8"/>
		</g>
		<g id="shape159-211" v:mID="159" v:groupContext="shape" transform="translate(570.296,-215.717)">
			<title>工作表.159</title>
			<desc>1024</desc>
			<v:textBlock v:margins="rect(4,4,4,4)" v:tabSpace="42.5197"/>
			<v:textRect cx="13.6417" cy="608.315" width="27.29" height="7.37008"/>
			<rect x="0" y="604.63" width="27.2835" height="7.37008" class="st5"/>
			<text x="4.64" y="611.01" class="st6" v:langID="2052"><v:paragraph v:horizAlign="1"/><v:tabList/>1024</text>		</g>
		<g id="shape165-214" v:mID="165" v:groupContext="shape" transform="translate(654.378,-154.063)">
			<title>工作表.165</title>
			<rect x="0" y="551.055" width="46.2036" height="60.9449" class="st1"/>
		</g>
		<g id="shape166-216" v:mID="166" v:groupContext="shape" transform="translate(665.503,-215.008)">
			<title>工作表.166</title>
			<desc>512</desc>
			<v:textBlock v:margins="rect(4,4,4,4)" v:tabSpace="42.5197"/>
			<v:textRect cx="11.9764" cy="608.315" width="23.96" height="7.37008"/>
			<rect x="0" y="604.63" width="23.9528" height="7.37008" class="st5"/>
			<text x="5.23" y="611.01" class="st6" v:langID="2052"><v:paragraph v:horizAlign="1"/><v:tabList/>512</text>		</g>
		<g id="shape167-219" v:mID="167" v:groupContext="shape" transform="translate(42.3779,483.307) rotate(-90)">
			<title>工作表.167</title>
			<desc>64X64</desc>
			<v:textBlock v:margins="rect(4,4,4,4)" v:tabSpace="42.5197"/>
			<v:textRect cx="35.8583" cy="608.315" width="71.72" height="7.37008"/>
			<rect x="0" y="604.63" width="71.7165" height="7.37008" class="st5"/>
			<text x="24.61" y="611.01" class="st6" v:langID="2052"><v:paragraph v:horizAlign="1"/><v:tabList/>64X64</text>		</g>
		<g id="shape168-222" v:mID="168" v:groupContext="shape" transform="translate(724.04,-154.063)">
			<title>工作表.168</title>
			<rect x="0" y="551.055" width="46.2036" height="60.9449" class="st1"/>
		</g>
		<g id="shape169-224" v:mID="169" v:groupContext="shape" transform="translate(735.166,-215.008)">
			<title>工作表.169</title>
			<desc>512</desc>
			<v:textBlock v:margins="rect(4,4,4,4)" v:tabSpace="42.5197"/>
			<v:textRect cx="11.9764" cy="608.315" width="23.96" height="7.37008"/>
			<rect x="0" y="604.63" width="23.9528" height="7.37008" class="st5"/>
			<text x="5.23" y="611.01" class="st6" v:langID="2052"><v:paragraph v:horizAlign="1"/><v:tabList/>512</text>		</g>
		<g id="shape170-227" v:mID="170" v:groupContext="shape" transform="translate(111.898,482.882) rotate(-90)">
			<title>工作表.170</title>
			<desc>64X64</desc>
			<v:textBlock v:margins="rect(4,4,4,4)" v:tabSpace="42.5197"/>
			<v:textRect cx="35.8583" cy="608.315" width="71.72" height="7.37008"/>
			<rect x="0" y="604.63" width="71.7165" height="7.37008" class="st5"/>
			<text x="24.61" y="611.01" class="st6" v:langID="2052"><v:paragraph v:horizAlign="1"/><v:tabList/>64X64</text>		</g>
		<g id="shape171-230" v:mID="171" v:groupContext="shape" v:layerMember="0" transform="translate(630.283,-207.496)">
			<title>动态连接线.171</title>
			<path d="M0 619.09 L14.28 619.09" class="st2"/>
		</g>
		<g id="shape244-235" v:mID="244" v:groupContext="shape" v:layerMember="0" transform="translate(700.582,-193.323)">
			<title>动态连接线.244</title>
			<path d="M0 604.91 L13.65 604.91" class="st2"/>
		</g>
		<g id="shape256-240" v:mID="256" v:groupContext="shape" transform="translate(786.546,-249.661)">
			<title>工作表.256</title>
			<rect x="0" y="551.055" width="21.5411" height="60.9449" class="st1"/>
		</g>
		<g id="shape257-242" v:mID="257" v:groupContext="shape" transform="translate(822.828,-249.307)">
			<title>工作表.257</title>
			<rect x="0" y="551.055" width="21.5411" height="60.9449" class="st1"/>
		</g>
		<g id="shape258-244" v:mID="258" v:groupContext="shape" transform="translate(785.34,-310.252)">
			<title>工作表.258</title>
			<desc>256</desc>
			<v:textBlock v:margins="rect(4,4,4,4)" v:tabSpace="42.5197"/>
			<v:textRect cx="11.9764" cy="608.315" width="23.96" height="7.37008"/>
			<rect x="0" y="604.63" width="23.9528" height="7.37008" class="st5"/>
			<text x="5.23" y="611.01" class="st6" v:langID="2052"><v:paragraph v:horizAlign="1"/><v:tabList/>256</text>		</g>
		<g id="shape259-247" v:mID="259" v:groupContext="shape" transform="translate(821.622,-310.252)">
			<title>工作表.259</title>
			<desc>256</desc>
			<v:textBlock v:margins="rect(4,4,4,4)" v:tabSpace="42.5197"/>
			<v:textRect cx="11.9764" cy="608.315" width="23.96" height="7.37008"/>
			<rect x="0" y="604.63" width="23.9528" height="7.37008" class="st5"/>
			<text x="5.23" y="611.01" class="st6" v:langID="2052"><v:paragraph v:horizAlign="1"/><v:tabList/>256</text>		</g>
		<g id="shape261-250" v:mID="261" v:groupContext="shape" transform="translate(174.189,383.244) rotate(-90)">
			<title>工作表.261</title>
			<desc>128X128</desc>
			<v:textBlock v:margins="rect(4,4,4,4)" v:tabSpace="42.5197"/>
			<v:textRect cx="35.8583" cy="608.315" width="71.72" height="7.37008"/>
			<rect x="0" y="604.63" width="71.7165" height="7.37008" class="st5"/>
			<text x="20.11" y="611.01" class="st6" v:langID="2052"><v:paragraph v:horizAlign="1"/><v:tabList/>128X128</text>		</g>
		<g id="shape262-253" v:mID="262" v:groupContext="shape" transform="translate(210.756,383.811) rotate(-90)">
			<title>工作表.262</title>
			<desc>128X128</desc>
			<v:textBlock v:margins="rect(4,4,4,4)" v:tabSpace="42.5197"/>
			<v:textRect cx="35.8583" cy="608.315" width="71.72" height="7.37008"/>
			<rect x="0" y="604.63" width="71.7165" height="7.37008" class="st5"/>
			<text x="20.11" y="611.01" class="st6" v:langID="2052"><v:paragraph v:horizAlign="1"/><v:tabList/>128X128</text>		</g>
		<g id="shape265-256" v:mID="265" v:groupContext="shape" transform="translate(750.19,-249.732)">
			<title>工作表.265</title>
			<rect x="0" y="551.055" width="21.5411" height="60.9449" class="st1"/>
		</g>
		<g id="shape266-258" v:mID="266" v:groupContext="shape" transform="translate(728.362,-249.732)">
			<title>工作表.266</title>
			<rect x="0" y="551.055" width="21.5411" height="60.9449" class="st4"/>
		</g>
		<g id="shape267-260" v:mID="267" v:groupContext="shape" v:layerMember="0" transform="translate(231.732,-271.276)">
			<title>动态连接线.267</title>
			<path d="M0 604.91 L447.29 604.91" class="st8"/>
		</g>
		<g id="shape268-265" v:mID="268" v:groupContext="shape" transform="translate(116.646,383.244) rotate(-90)">
			<title>工作表.268</title>
			<desc>128X128</desc>
			<v:textBlock v:margins="rect(4,4,4,4)" v:tabSpace="42.5197"/>
			<v:textRect cx="35.8583" cy="608.315" width="71.72" height="7.37008"/>
			<rect x="0" y="604.63" width="71.7165" height="7.37008" class="st5"/>
			<text x="20.11" y="611.01" class="st6" v:langID="2052"><v:paragraph v:horizAlign="1"/><v:tabList/>128X128</text>		</g>
		<g id="shape269-268" v:mID="269" v:groupContext="shape" transform="translate(738.07,-310.11)">
			<title>工作表.269</title>
			<desc>512</desc>
			<v:textBlock v:margins="rect(4,4,4,4)" v:tabSpace="42.5197"/>
			<v:textRect cx="11.9764" cy="608.315" width="23.96" height="7.37008"/>
			<rect x="0" y="604.63" width="23.9528" height="7.37008" class="st5"/>
			<text x="5.23" y="611.01" class="st6" v:langID="2052"><v:paragraph v:horizAlign="1"/><v:tabList/>512</text>		</g>
		<g id="shape270-271" v:mID="270" v:groupContext="shape" v:layerMember="0" transform="translate(753.591,-250.312)">
			<title>动态连接线.270</title>
			<path d="M7.09 621.45 L7.09 621.81 L7.09 647.3" class="st7"/>
		</g>
		<g id="shape271-276" v:mID="271" v:groupContext="shape" v:layerMember="0" transform="translate(848.218,-344.268)">
			<title>动态连接线.271</title>
			<path d="M-7.07 621.45 L-7.07 621.81 L-7.14 638.65" class="st7"/>
		</g>
		<g id="shape286-281" v:mID="286" v:groupContext="shape" transform="translate(858.91,-344.268)">
			<title>工作表.286</title>
			<rect x="0" y="551.055" width="12.5895" height="60.9449" class="st1"/>
		</g>
		<g id="shape288-283" v:mID="288" v:groupContext="shape" transform="translate(884.422,-344.268)">
			<title>工作表.288</title>
			<rect x="0" y="551.055" width="12.5895" height="60.9449" class="st1"/>
		</g>
		<g id="shape289-285" v:mID="289" v:groupContext="shape" v:layerMember="0" transform="translate(870.874,-391.039)">
			<title>动态连接线.289</title>
			<path d="M0.63 604.91 L3.74 604.91" class="st2"/>
		</g>
		<g id="shape290-290" v:mID="290" v:groupContext="shape" transform="translate(853.228,-405.213)">
			<title>工作表.290</title>
			<desc>128</desc>
			<v:textBlock v:margins="rect(4,4,4,4)" v:tabSpace="42.5197"/>
			<v:textRect cx="11.9764" cy="608.315" width="23.96" height="7.37008"/>
			<rect x="0" y="604.63" width="23.9528" height="7.37008" class="st5"/>
			<text x="5.23" y="611.01" class="st6" v:langID="2052"><v:paragraph v:horizAlign="1"/><v:tabList/>128</text>		</g>
		<g id="shape291-293" v:mID="291" v:groupContext="shape" transform="translate(878.74,-405.213)">
			<title>工作表.291</title>
			<desc>128</desc>
			<v:textBlock v:margins="rect(4,4,4,4)" v:tabSpace="42.5197"/>
			<v:textRect cx="11.9764" cy="608.315" width="23.96" height="7.37008"/>
			<rect x="0" y="604.63" width="23.9528" height="7.37008" class="st5"/>
			<text x="5.23" y="611.01" class="st6" v:langID="2052"><v:paragraph v:horizAlign="1"/><v:tabList/>128</text>		</g>
		<g id="shape292-296" v:mID="292" v:groupContext="shape" transform="translate(209.964,288.283) rotate(-90)">
			<title>工作表.292</title>
			<desc>256X256</desc>
			<v:textBlock v:margins="rect(4,4,4,4)" v:tabSpace="42.5197"/>
			<v:textRect cx="35.8583" cy="608.315" width="71.72" height="7.37008"/>
			<rect x="0" y="604.63" width="71.7165" height="7.37008" class="st5"/>
			<text x="20.11" y="611.01" class="st6" v:langID="2052"><v:paragraph v:horizAlign="1"/><v:tabList/>256X256</text>		</g>
		<g id="shape293-299" v:mID="293" v:groupContext="shape" transform="translate(247.039,288.283) rotate(-90)">
			<title>工作表.293</title>
			<desc>256X256</desc>
			<v:textBlock v:margins="rect(4,4,4,4)" v:tabSpace="42.5197"/>
			<v:textRect cx="35.8583" cy="608.315" width="71.72" height="7.37008"/>
			<rect x="0" y="604.63" width="71.7165" height="7.37008" class="st5"/>
			<text x="20.11" y="611.01" class="st6" v:langID="2052"><v:paragraph v:horizAlign="1"/><v:tabList/>256X256</text>		</g>
		<g id="shape294-302" v:mID="294" v:groupContext="shape" transform="translate(272.551,288.283) rotate(-90)">
			<title>工作表.294</title>
			<desc>256X256</desc>
			<v:textBlock v:margins="rect(4,4,4,4)" v:tabSpace="42.5197"/>
			<v:textRect cx="35.8583" cy="608.315" width="71.72" height="7.37008"/>
			<rect x="0" y="604.63" width="71.7165" height="7.37008" class="st5"/>
			<text x="20.11" y="611.01" class="st6" v:langID="2052"><v:paragraph v:horizAlign="1"/><v:tabList/>256X256</text>		</g>
		<g id="shape295-305" v:mID="295" v:groupContext="shape" transform="translate(822.827,-405.354)">
			<title>工作表.295</title>
			<desc>256</desc>
			<v:textBlock v:margins="rect(4,4,4,4)" v:tabSpace="42.5197"/>
			<v:textRect cx="11.9764" cy="608.315" width="23.96" height="7.37008"/>
			<rect x="0" y="604.63" width="23.9528" height="7.37008" class="st5"/>
			<text x="5.23" y="611.01" class="st6" v:langID="2052"><v:paragraph v:horizAlign="1"/><v:tabList/>256</text>		</g>
		<g id="shape296-308" v:mID="296" v:groupContext="shape" transform="translate(893.209,-441.638)">
			<title>工作表.296</title>
			<rect x="0" y="509.386" width="7.08661" height="102.614" class="st1"/>
		</g>
		<g id="shape297-310" v:mID="297" v:groupContext="shape" transform="translate(912.626,-441.638)">
			<title>工作表.297</title>
			<rect x="0" y="509.386" width="7.08661" height="102.614" class="st1"/>
		</g>
		<g id="shape298-312" v:mID="298" v:groupContext="shape" v:layerMember="0" transform="translate(899.375,-515.474)">
			<title>动态连接线.298</title>
			<path d="M0.92 604.91 L3.44 604.91" class="st2"/>
		</g>
		<g id="shape299-317" v:mID="299" v:groupContext="shape" transform="translate(932.044,-441.638)">
			<title>工作表.299</title>
			<rect x="0" y="509.386" width="7.08661" height="102.614" class="st1"/>
		</g>
		<g id="shape300-319" v:mID="300" v:groupContext="shape" v:layerMember="0" transform="translate(918.792,-515.474)">
			<title>动态连接线.300</title>
			<path d="M0.92 604.91 L3.44 604.91" class="st2"/>
		</g>
		<g id="shape302-324" v:mID="302" v:groupContext="shape" transform="translate(903.901,-544.252)">
			<title>工作表.302</title>
			<desc>64</desc>
			<v:textBlock v:margins="rect(4,4,4,4)" v:tabSpace="42.5197"/>
			<v:textRect cx="11.9764" cy="608.315" width="23.96" height="7.37008"/>
			<rect x="0" y="604.63" width="23.9528" height="7.37008" class="st5"/>
			<text x="7.48" y="611.01" class="st6" v:langID="2052"><v:paragraph v:horizAlign="1"/><v:tabList/>64</text>		</g>
		<g id="shape303-327" v:mID="303" v:groupContext="shape" transform="translate(923.611,-543.968)">
			<title>工作表.303</title>
			<desc>64</desc>
			<v:textBlock v:margins="rect(4,4,4,4)" v:tabSpace="42.5197"/>
			<v:textRect cx="11.9764" cy="608.315" width="23.96" height="7.37008"/>
			<rect x="0" y="604.63" width="23.9528" height="7.37008" class="st5"/>
			<text x="7.48" y="611.01" class="st6" v:langID="2052"><v:paragraph v:horizAlign="1"/><v:tabList/>64</text>		</g>
		<g id="shape305-330" v:mID="305" v:groupContext="shape" transform="translate(300.91,191.055) rotate(-90)">
			<title>工作表.305</title>
			<desc>512X512</desc>
			<v:textBlock v:margins="rect(4,4,4,4)" v:tabSpace="42.5197"/>
			<v:textRect cx="35.8583" cy="608.315" width="71.72" height="7.37008"/>
			<rect x="0" y="604.63" width="71.7165" height="7.37008" class="st5"/>
			<text x="20.11" y="611.01" class="st6" v:langID="2052"><v:paragraph v:horizAlign="1"/><v:tabList/>512X512</text>		</g>
		<g id="shape306-333" v:mID="306" v:groupContext="shape" transform="translate(319.902,191.055) rotate(-90)">
			<title>工作表.306</title>
			<desc>512X512</desc>
			<v:textBlock v:margins="rect(4,4,4,4)" v:tabSpace="42.5197"/>
			<v:textRect cx="35.8583" cy="608.315" width="71.72" height="7.37008"/>
			<rect x="0" y="604.63" width="71.7165" height="7.37008" class="st5"/>
			<text x="20.11" y="611.01" class="st6" v:langID="2052"><v:paragraph v:horizAlign="1"/><v:tabList/>512X512</text>		</g>
		<g id="shape307-336" v:mID="307" v:groupContext="shape" transform="translate(834.886,-344.268)">
			<title>工作表.307</title>
			<rect x="0" y="551.055" width="12.5895" height="60.9449" class="st1"/>
		</g>
		<g id="shape308-338" v:mID="308" v:groupContext="shape" transform="translate(822.13,-344.268)">
			<title>工作表.308</title>
			<rect x="0" y="551.055" width="12.5895" height="60.9449" class="st4"/>
		</g>
		<g id="shape311-340" v:mID="311" v:groupContext="shape" v:layerMember="0" transform="translate(846.106,-391.039)">
			<title>动态连接线.311</title>
			<path d="M1.37 604.91 L2.99 604.91" class="st2"/>
		</g>
		<g id="shape312-345" v:mID="312" v:groupContext="shape" v:layerMember="0" transform="translate(168.992,-364.37)">
			<title>动态连接线.312</title>
			<path d="M0 604.91 L621.42 604.91" class="st8"/>
		</g>
		<g id="shape425-350" v:mID="425" v:groupContext="shape" transform="translate(951.307,-441.638)">
			<title>工作表.425</title>
			<rect x="0" y="509.386" width="3.68504" height="102.614" class="st1"/>
		</g>
		<g id="shape426-352" v:mID="426" v:groupContext="shape" transform="translate(274.123,191.48) rotate(-90)">
			<title>工作表.426</title>
			<desc>512X512</desc>
			<v:textBlock v:margins="rect(4,4,4,4)" v:tabSpace="42.5197"/>
			<v:textRect cx="35.8583" cy="608.315" width="71.72" height="7.37008"/>
			<rect x="0" y="604.63" width="71.7165" height="7.37008" class="st5"/>
			<text x="20.11" y="611.01" class="st6" v:langID="2052"><v:paragraph v:horizAlign="1"/><v:tabList/>512X512</text>		</g>
		<g id="shape427-355" v:mID="427" v:groupContext="shape" transform="translate(886.535,-441.638)">
			<title>工作表.427</title>
			<rect x="0" y="509.386" width="7.08661" height="102.614" class="st4"/>
		</g>
		<g id="shape428-357" v:mID="428" v:groupContext="shape" transform="translate(881.439,-544.535)">
			<title>工作表.428</title>
			<desc>128</desc>
			<v:textBlock v:margins="rect(4,4,4,4)" v:tabSpace="42.5197"/>
			<v:textRect cx="11.9764" cy="608.315" width="23.96" height="7.37008"/>
			<rect x="0" y="604.63" width="23.9528" height="7.37008" class="st5"/>
			<text x="5.23" y="611.01" class="st6" v:langID="2052"><v:paragraph v:horizAlign="1"/><v:tabList/>128</text>		</g>
		<g id="shape429-360" v:mID="429" v:groupContext="shape" v:layerMember="0" transform="translate(938.132,-529.647)">
			<title>动态连接线.429</title>
			<path d="M1 619.09 L3.36 619.09" class="st2"/>
		</g>
		<g id="shape430-365" v:mID="430" v:groupContext="shape" transform="translate(339.732,191.055) rotate(-90)">
			<title>工作表.430</title>
			<desc>512X512</desc>
			<v:textBlock v:margins="rect(4,4,4,4)" v:tabSpace="42.5197"/>
			<v:textRect cx="35.8583" cy="608.315" width="71.72" height="7.37008"/>
			<rect x="0" y="604.63" width="71.7165" height="7.37008" class="st5"/>
			<text x="20.11" y="611.01" class="st6" v:langID="2052"><v:paragraph v:horizAlign="1"/><v:tabList/>512X512</text>		</g>
		<g id="shape431-368" v:mID="431" v:groupContext="shape" transform="translate(941.173,-544.252)">
			<title>工作表.431</title>
			<desc>3</desc>
			<v:textBlock v:margins="rect(4,4,4,4)" v:tabSpace="42.5197"/>
			<v:textRect cx="11.9764" cy="608.315" width="23.96" height="7.37008"/>
			<rect x="0" y="604.63" width="23.9528" height="7.37008" class="st5"/>
			<text x="9.73" y="611.01" class="st6" v:langID="2052"><v:paragraph v:horizAlign="1"/><v:tabList/>3</text>		</g>
		<g id="shape432-371" v:mID="432" v:groupContext="shape" v:layerMember="0" transform="translate(107.724,-485.858)">
			<title>动态连接线.432</title>
			<path d="M0 604.91 L740.59 604.91" class="st8"/>
		</g>
		<g id="shape433-376" v:mID="433" v:groupContext="shape" transform="translate(376.299,-187.37)">
			<title>工作表.433</title>
			<desc>在维度上拼接</desc>
			<v:textBlock v:margins="rect(4,4,4,4)" v:tabSpace="42.5197"/>
			<v:textRect cx="53.1496" cy="600.945" width="106.3" height="22.1102"/>
			<rect x="0" y="589.89" width="106.299" height="22.1102" class="st5"/>
			<text x="11.15" y="605.15" class="st10" v:langID="2052"><v:paragraph v:horizAlign="1"/><v:tabList/>在维度上拼接</text>		</g>
		<g id="shape434-379" v:mID="434" v:groupContext="shape" transform="translate(379.843,-279.496)">
			<title>工作表.434</title>
			<desc>在维度上拼接</desc>
			<v:textBlock v:margins="rect(4,4,4,4)" v:tabSpace="42.5197"/>
			<v:textRect cx="53.1496" cy="600.945" width="106.3" height="22.1102"/>
			<rect x="0" y="589.89" width="106.299" height="22.1102" class="st5"/>
			<text x="11.15" y="605.15" class="st10" v:langID="2052"><v:paragraph v:horizAlign="1"/><v:tabList/>在维度上拼接</text>		</g>
		<g id="shape553-382" v:mID="553" v:groupContext="shape" transform="translate(384.095,-371.622)">
			<title>工作表.553</title>
			<desc>在维度上拼接</desc>
			<v:textBlock v:margins="rect(4,4,4,4)" v:tabSpace="42.5197"/>
			<v:textRect cx="53.1496" cy="600.945" width="106.3" height="22.1102"/>
			<rect x="0" y="589.89" width="106.299" height="22.1102" class="st5"/>
			<text x="11.15" y="605.15" class="st10" v:langID="2052"><v:paragraph v:horizAlign="1"/><v:tabList/>在维度上拼接</text>		</g>
		<g id="shape554-385" v:mID="554" v:groupContext="shape" transform="translate(384.095,-493.795)">
			<title>工作表.554</title>
			<desc>在维度上拼接</desc>
			<v:textBlock v:margins="rect(4,4,4,4)" v:tabSpace="42.5197"/>
			<v:textRect cx="53.1496" cy="600.945" width="106.3" height="22.1102"/>
			<rect x="0" y="589.89" width="106.299" height="22.1102" class="st5"/>
			<text x="11.15" y="605.15" class="st10" v:langID="2052"><v:paragraph v:horizAlign="1"/><v:tabList/>在维度上拼接</text>		</g>
		<g id="shape555-388" v:mID="555" v:groupContext="shape" v:layerMember="0" transform="translate(771.731,-293.953)">
			<title>动态连接线.555</title>
			<path d="M0 604.91 L5 604.91" class="st2"/>
		</g>
		<g id="shape556-393" v:mID="556" v:groupContext="shape" v:layerMember="0" transform="translate(808.087,-293.953)">
			<title>动态连接线.556</title>
			<path d="M0 604.91 L4.93 604.91" class="st2"/>
		</g>
	</g>
</svg>
